# xmcd
#
# Track frame offsets:
#	150
#	10788
#	22070
#	32454
#	44320
#	53676
#	64674
#	75460
#	88282
#	100702
#	111916
#	127196
#	139398
#	155450
#	164097
#	173501
#	186948
#	194965
#	208546
#	219465
#	231779
#	239051
#
# Disc length: 3341 seconds
#
# Revision: 1
# Processed by: cddbd v1.5.2PL0 Copyright (c) Steve Scherf et al.
# Submitted via: EZCDAudioConverter 8.3.2.1
#
DISCID=3d0d0b16
DTITLE=Dean Martin - Swinging With Dino
DYEAR=2002
DGENRE=
TTITLE0=Grenzlandmusi - Frei und Treu Marsch
TTITLE1=Kirchschlager Gitarrentrio - Rauscher Boarischer
TTITLE2=Elmberger Quartett - Bärlauchsuppn Walzer
TTITLE3=Kirchschlager Gitarrentrio - Bleib so wie du bist - Polka
TTITLE4=Grenzlandmusi - Mösenbacher Boarischer
TTITLE5=Kirchschlager Gitarrentrio - Ab uf d' Loipe - Walzer
TTITLE6=Kirchschlager Gitarrentrio - Reserl Polka Franzaise
TTITLE7=Elmberger Quartett - s' Gscheidhaferl - Walzer
TTITLE8=Kirchschlager Gitarrentrio - Auf nach Zell - Marsch
TTITLE9=Grenzlandmusi - Froschauer Franze
TTITLE10=Kirchschlager Gitarrentrio - Im Löwenbräu - Boarischer
TTITLE11=Grenzlandmusi - Radlfahrer Walzer
TTITLE12=Kirchschlager Gitarrentrio -  Höfatsblick - Polka
TTITLE13=Elmberger Quartett - Stieglbräu Rheinländer
TTITLE14=Grenzlandmusi - Buchauer Walzer
TTITLE15=Kirchschlager Gitarrentrio - Mama Papa Boarischer
TTITLE16=Grenzlandmusi - De Toagade - Polka
TTITLE17=Kirchschlager Gitarrentrio - Bolsena Walzer
TTITLE18=Kirchschlager Gitarrentrio - Für flotte Bienen - Polka
TTITLE19=Grenzlandmusi - Drah di aussi - Boarischer
TTITLE20=Elmberger Quartett - Trahüttner Polka
TTITLE21=Kirchschlager Gitarrentrio - Walzer aus St. Loenhard
EXTD=
EXTT0=
EXTT1=
EXTT2=
EXTT3=
EXTT4=
EXTT5=
EXTT6=
EXTT7=
EXTT8=
EXTT9=
EXTT10=
EXTT11=
EXTT12=
EXTT13=
EXTT14=
EXTT15=
EXTT16=
EXTT17=
EXTT18=
EXTT19=
EXTT20=
EXTT21=
PLAYORDER=
